<svg width="20" height="20" viewBox="0 0 20 20" fill="none" xmlns="http://www.w3.org/2000/svg">
<path d="M17.391 1.28715L9.99977 8.6784L2.60853 1.28715C2.43075 1.12448 2.19707 1.03666 1.95616 1.042C1.71526 1.04734 1.48569 1.14542 1.3153 1.31581C1.14491 1.4862 1.04683 1.71576 1.0415 1.95667C1.03616 2.19758 1.12397 2.43126 1.28665 2.60903L8.67415 10.0003L1.28477 17.3897C1.1945 17.4757 1.12233 17.5789 1.07252 17.6932C1.0227 17.8076 0.996245 17.9307 0.994701 18.0554C0.993156 18.1801 1.01656 18.3038 1.06352 18.4193C1.11049 18.5349 1.18008 18.6398 1.2682 18.7281C1.35632 18.8163 1.46119 18.8861 1.57664 18.9332C1.6921 18.9803 1.81582 19.0039 1.94051 19.0025C2.06521 19.0012 2.18838 18.9749 2.30278 18.9252C2.41717 18.8756 2.52049 18.8036 2.60665 18.7134L9.99977 11.324L17.391 18.7153C17.5688 18.878 17.8025 18.9658 18.0434 18.9604C18.2843 18.9551 18.5139 18.857 18.6842 18.6866C18.8546 18.5162 18.9527 18.2867 18.9581 18.0458C18.9634 17.8049 18.8756 17.5712 18.7129 17.3934L11.3217 10.0022L18.7129 2.60903C18.8032 2.523 18.8753 2.41978 18.9252 2.30546C18.975 2.19113 19.0014 2.068 19.003 1.94331C19.0045 1.81861 18.9811 1.69486 18.9342 1.57934C18.8872 1.46381 18.8176 1.35884 18.7295 1.2706C18.6414 1.18236 18.5365 1.11262 18.421 1.06549C18.3056 1.01836 18.1819 0.994782 18.0572 0.99615C17.9325 0.997518 17.8093 1.0238 17.6949 1.07345C17.5805 1.12311 17.4772 1.19513 17.391 1.28528V1.28715Z" fill="black"/>
</svg>
