<svg width="21" height="21" viewBox="0 0 21 21" fill="none" xmlns="http://www.w3.org/2000/svg">
<path d="M9.75 6.75C9.75 6.55109 9.82902 6.36032 9.96967 6.21967C10.1103 6.07902 10.3011 6 10.5 6C10.6989 6 10.8897 6.07902 11.0303 6.21967C11.171 6.36032 11.25 6.55109 11.25 6.75V9.75H14.25C14.4489 9.75 14.6397 9.82902 14.7803 9.96967C14.921 10.1103 15 10.3011 15 10.5C15 10.6989 14.921 10.8897 14.7803 11.0303C14.6397 11.171 14.4489 11.25 14.25 11.25H11.25V14.25C11.25 14.4489 11.171 14.6397 11.0303 14.7803C10.8897 14.921 10.6989 15 10.5 15C10.3011 15 10.1103 14.921 9.96967 14.7803C9.82902 14.6397 9.75 14.4489 9.75 14.25V11.25H6.75C6.55109 11.25 6.36032 11.171 6.21967 11.0303C6.07902 10.8897 6 10.6989 6 10.5C6 10.3011 6.07902 10.1103 6.21967 9.96967C6.36032 9.82902 6.55109 9.75 6.75 9.75H9.75V6.75ZM21 10.5C21 16.299 16.299 21 10.5 21C4.701 21 0 16.299 0 10.5C0 4.701 4.701 0 10.5 0C16.299 0 21 4.701 21 10.5ZM19.5 10.5C19.5 5.52975 15.4703 1.5 10.5 1.5C5.52975 1.5 1.5 5.52975 1.5 10.5C1.5 15.4703 5.52975 19.5 10.5 19.5C15.4703 19.5 19.5 15.4703 19.5 10.5Z" fill="white"/>
</svg>
