<svg width="53" height="18" viewBox="0 0 53 18" fill="none" xmlns="http://www.w3.org/2000/svg">
<rect x="0.5" y="0.5" width="52" height="17" rx="3.5" fill="#FD0C0C"/>
<path d="M14.1462 3.17054C14.2963 2.88608 14.7037 2.88608 14.8538 3.17054L16.3949 6.09157C16.4528 6.20127 16.5583 6.27791 16.6805 6.29906L19.9348 6.86213C20.2517 6.91697 20.3776 7.30442 20.1535 7.53506L17.8517 9.90343C17.7652 9.99238 17.7249 10.1164 17.7426 10.2392L18.2127 13.5082C18.2585 13.8265 17.9289 14.066 17.6403 13.9241L14.6765 12.4668C14.5652 12.4121 14.4348 12.4121 14.3235 12.4668L11.3597 13.9241C11.0711 14.066 10.7415 13.8265 10.7873 13.5082L11.2574 10.2392C11.2751 10.1164 11.2348 9.99238 11.1483 9.90343L8.84653 7.53506C8.62237 7.30442 8.74826 6.91697 9.06517 6.86213L12.3195 6.29906C12.4417 6.27791 12.5472 6.20127 12.6051 6.09157L14.1462 3.17054Z" fill="white"/>
<path d="M29.6523 13H31.0938V11.377H32.2422V10.1348H31.0938V4.54492H28.9434C27.1094 7.21094 26.166 8.71094 25.4336 10.0879V11.377H29.6523V13ZM26.793 10.1289C27.4668 8.89844 28.2871 7.62695 29.6523 5.66992H29.6758V10.1699H26.793V10.1289ZM34.7085 14.7871L35.4995 11.6055H34.0757L33.5894 14.7871H34.7085ZM40.5498 13.1699C42.4248 13.1699 43.7256 11.9629 43.7256 10.2109C43.7256 8.59961 42.5655 7.42773 40.9541 7.42773C40.1045 7.42773 39.4073 7.76172 39.0381 8.33008H39.0088L39.2432 5.78125H43.2276V4.54492H38.0362L37.6319 9.46094H38.9502C39.2725 8.88672 39.8409 8.56445 40.5674 8.56445C41.5635 8.56445 42.2666 9.26172 42.2666 10.252C42.2666 11.248 41.5694 11.9453 40.5616 11.9453C39.6709 11.9453 38.9913 11.4121 38.8975 10.6211H37.4795C37.544 12.1211 38.8096 13.1699 40.5498 13.1699Z" fill="white"/>
<rect x="0.5" y="0.5" width="52" height="17" rx="3.5" stroke="#FD0202"/>
</svg>
