<svg width="36" height="32" viewBox="0 0 36 32" fill="none" xmlns="http://www.w3.org/2000/svg">
<path fill-rule="evenodd" clip-rule="evenodd" d="M9.61916 1.38086C10.1749 1.38086 10.7078 1.60161 11.1007 1.99454C11.4937 2.38747 11.7144 2.92041 11.7144 3.4761V7.66657C11.7144 8.22227 11.4937 8.7552 11.1007 9.14813C10.7078 9.54106 10.1749 9.76181 9.61916 9.76181C9.06347 9.76181 8.53054 9.54106 8.13761 9.14813C7.74467 8.7552 7.52393 8.22227 7.52393 7.66657V3.4761C7.52393 2.92041 7.74467 2.38747 8.13761 1.99454C8.53054 1.60161 9.06347 1.38086 9.61916 1.38086V1.38086Z" stroke="black" stroke-linecap="round" stroke-linejoin="round"/>
<path d="M34.762 5.57129H11.7144" stroke="black" stroke-linecap="round" stroke-linejoin="round"/>
<path d="M7.52399 5.57129H1.23828" stroke="black" stroke-linecap="round" stroke-linejoin="round"/>
<path fill-rule="evenodd" clip-rule="evenodd" d="M9.61916 22.333C10.1749 22.333 10.7078 22.5538 11.1007 22.9467C11.4937 23.3396 11.7144 23.8726 11.7144 24.4282V28.6187C11.7144 29.1744 11.4937 29.7073 11.1007 30.1003C10.7078 30.4932 10.1749 30.714 9.61916 30.714C9.06347 30.714 8.53054 30.4932 8.13761 30.1003C7.74467 29.7073 7.52393 29.1744 7.52393 28.6187V24.4282C7.52393 23.8726 7.74467 23.3396 8.13761 22.9467C8.53054 22.5538 9.06347 22.333 9.61916 22.333Z" stroke="black" stroke-linecap="round" stroke-linejoin="round"/>
<path d="M34.762 26.5234H11.7144" stroke="black" stroke-linecap="round" stroke-linejoin="round"/>
<path d="M7.52399 26.5234H1.23828" stroke="black" stroke-linecap="round" stroke-linejoin="round"/>
<path fill-rule="evenodd" clip-rule="evenodd" d="M26.3814 11.8574C26.9371 11.8574 27.47 12.0782 27.8629 12.4711C28.2559 12.864 28.4766 13.397 28.4766 13.9527V18.1431C28.4766 18.6988 28.2559 19.2318 27.8629 19.6247C27.47 20.0176 26.9371 20.2384 26.3814 20.2384C25.8257 20.2384 25.2927 20.0176 24.8998 19.6247C24.5069 19.2318 24.2861 18.6988 24.2861 18.1431V13.9527C24.2861 13.397 24.5069 12.864 24.8998 12.4711C25.2927 12.0782 25.8257 11.8574 26.3814 11.8574V11.8574Z" stroke="black" stroke-linecap="round" stroke-linejoin="round"/>
<path d="M24.2859 16.0479H1.23828" stroke="black" stroke-linecap="round" stroke-linejoin="round"/>
<path d="M34.7623 16.0479H28.4766" stroke="black" stroke-linecap="round" stroke-linejoin="round"/>
</svg>
