<svg width="4" height="20" viewBox="0 0 4 20" fill="none" xmlns="http://www.w3.org/2000/svg">
<path fill-rule="evenodd" clip-rule="evenodd" d="M2.00033 0.833008C2.48656 0.833008 2.95287 1.02616 3.29669 1.36998C3.6405 1.7138 3.83366 2.18011 3.83366 2.66634C3.83366 3.15257 3.6405 3.61889 3.29669 3.9627C2.95287 4.30652 2.48656 4.49967 2.00033 4.49967C1.5141 4.49967 1.04778 4.30652 0.703963 3.9627C0.360147 3.61889 0.166992 3.15257 0.166992 2.66634C0.166992 2.18011 0.360147 1.7138 0.703963 1.36998C1.04778 1.02616 1.5141 0.833008 2.00033 0.833008Z" fill="black" fill-opacity="0.5"/>
<path fill-rule="evenodd" clip-rule="evenodd" d="M2.00033 8.16602C2.48656 8.16602 2.95287 8.35917 3.29669 8.70299C3.6405 9.0468 3.83366 9.51312 3.83366 9.99935C3.83366 10.4856 3.6405 10.9519 3.29669 11.2957C2.95287 11.6395 2.48656 11.8327 2.00033 11.8327C1.5141 11.8327 1.04778 11.6395 0.703963 11.2957C0.360147 10.9519 0.166992 10.4856 0.166992 9.99935C0.166992 9.51312 0.360147 9.0468 0.703963 8.70299C1.04778 8.35917 1.5141 8.16602 2.00033 8.16602Z" fill="black" fill-opacity="0.5"/>
<path fill-rule="evenodd" clip-rule="evenodd" d="M2.00033 15.5C2.48656 15.5 2.95287 15.6932 3.29669 16.037C3.6405 16.3808 3.83366 16.8471 3.83366 17.3333C3.83366 17.8196 3.6405 18.2859 3.29669 18.6297C2.95287 18.9735 2.48656 19.1667 2.00033 19.1667C1.5141 19.1667 1.04778 18.9735 0.703963 18.6297C0.360147 18.2859 0.166992 17.8196 0.166992 17.3333C0.166992 16.8471 0.360147 16.3808 0.703963 16.037C1.04778 15.6932 1.5141 15.5 2.00033 15.5Z" fill="black" fill-opacity="0.5"/>
</svg>
