<svg width="150" height="150" viewBox="0 0 150 150" fill="none" xmlns="http://www.w3.org/2000/svg">
<path d="M63.012 45.973C61.5794 38.9417 59.8568 29.4876 59.8568 24.5189C59.8439 22.5266 60.2268 20.5516 60.9833 18.7085C61.7398 16.8654 62.8548 15.1909 64.2636 13.7821C65.6723 12.3734 67.3469 11.2584 69.19 10.5019C71.0331 9.7454 73.008 9.36247 75.0003 9.37531V9.37531C83.3646 9.37531 90.1439 16.3157 90.1439 24.5189C90.1439 29.3529 88.43 38.8597 86.9886 45.973" stroke="black" stroke-opacity="0.3" stroke-width="2.5" stroke-miterlimit="10" stroke-linecap="round"/>
<path d="M63.012 104.027C61.5736 111.076 59.8568 120.48 59.8568 125.481C59.8439 127.474 60.2268 129.449 60.9833 131.292C61.7398 133.135 62.8548 134.809 64.2636 136.218C65.6723 137.627 67.3469 138.742 69.19 139.498C71.0331 140.255 73.008 140.638 75.0003 140.625V140.625C83.3646 140.625 90.1439 133.685 90.1439 125.481C90.1439 120.636 88.43 111.146 86.9886 104.027" stroke="black" stroke-opacity="0.3" stroke-width="2.5" stroke-miterlimit="10" stroke-linecap="round"/>
<path d="M104.027 63.012C111.076 61.5736 120.48 59.8568 125.481 59.8568C127.474 59.8439 129.449 60.2268 131.292 60.9833C133.135 61.7398 134.809 62.8548 136.218 64.2636C137.627 65.6723 138.742 67.3469 139.498 69.19C140.255 71.0331 140.638 73.008 140.625 75.0003V75.0003C140.625 83.3646 133.685 90.1439 125.481 90.1439C120.647 90.1439 111.141 88.43 104.027 86.9886" stroke="black" stroke-opacity="0.3" stroke-width="2.5" stroke-miterlimit="10" stroke-linecap="round"/>
<path d="M45.9725 63.0091C38.9412 61.5765 29.493 59.8568 24.5184 59.8568C22.5261 59.8439 20.5511 60.2268 18.708 60.9833C16.8649 61.7398 15.1904 62.8548 13.7816 64.2636C12.3729 65.6723 11.2579 67.3469 10.5014 69.19C9.74491 71.0331 9.36198 73.008 9.37482 75.0003V75.0003C9.37482 83.3646 16.3153 90.1439 24.5184 90.1439C29.3524 90.1439 38.8592 88.43 45.9725 86.9886" stroke="black" stroke-opacity="0.3" stroke-width="2.5" stroke-miterlimit="10" stroke-linecap="round"/>
<path d="M86.9883 45.9722C90.958 39.9722 96.4512 32.1294 99.9873 28.5962C101.387 27.1781 103.054 26.052 104.892 25.2835C106.73 24.5149 108.703 24.1191 110.695 24.1191C112.688 24.1191 114.66 24.5149 116.498 25.2835C118.337 26.052 120.004 27.1781 121.403 28.5962V28.5962C127.318 34.5112 127.204 44.2114 121.403 50.0122C117.987 53.4312 110.074 58.9976 104.027 63.0112" stroke="black" stroke-opacity="0.3" stroke-width="2.5" stroke-miterlimit="10" stroke-linecap="round"/>
<path d="M45.9727 86.9883C39.9727 90.958 32.1299 96.4512 28.5967 99.9873C27.1785 101.387 26.0525 103.054 25.284 104.892C24.5154 106.73 24.1196 108.703 24.1196 110.695C24.1196 112.688 24.5154 114.66 25.284 116.498C26.0525 118.337 27.1785 120.004 28.5967 121.403C34.5117 127.318 44.2119 127.204 50.0127 121.403C53.4317 117.987 58.9981 110.074 63.0117 104.027" stroke="black" stroke-opacity="0.3" stroke-width="2.5" stroke-miterlimit="10" stroke-linecap="round"/>
<path d="M104.027 86.9883C110.027 90.958 117.87 96.4512 121.403 99.9873C122.821 101.387 123.948 103.054 124.716 104.892C125.485 106.73 125.88 108.703 125.88 110.695C125.88 112.688 125.485 114.66 124.716 116.498C123.948 118.337 122.821 120.004 121.403 121.403V121.403C115.488 127.318 105.788 127.204 99.9873 121.403C96.5625 117.979 91.0049 110.08 86.9883 104.027" stroke="black" stroke-opacity="0.3" stroke-width="2.5" stroke-miterlimit="10" stroke-linecap="round"/>
<path d="M63.0117 45.9722C59.0478 39.9868 53.5254 32.1089 50.0127 28.5962C48.6132 27.1781 46.946 26.052 45.1078 25.2835C43.2696 24.5149 41.2971 24.1191 39.3047 24.1191C37.3123 24.1191 35.3397 24.5149 33.5015 25.2835C31.6633 26.052 29.9961 27.1781 28.5967 28.5962V28.5962C22.6816 34.5112 22.7959 44.2114 28.5967 50.0122C31.998 53.4136 39.9346 59.0005 45.9726 63.0112" stroke="black" stroke-opacity="0.3" stroke-width="2.5" stroke-miterlimit="10" stroke-linecap="round"/>
<path d="M75 93.75C85.3553 93.75 93.75 85.3553 93.75 75C93.75 64.6447 85.3553 56.25 75 56.25C64.6447 56.25 56.25 64.6447 56.25 75C56.25 85.3553 64.6447 93.75 75 93.75Z" stroke="black" stroke-opacity="0.3" stroke-width="2.5" stroke-miterlimit="10" stroke-linecap="round"/>
</svg>
