<svg width="34" height="37" viewBox="0 0 34 37" fill="none" xmlns="http://www.w3.org/2000/svg">
<path d="M23.8082 24.2295C24.8717 23.6582 26.089 23.333 27.3854 23.333H27.3898C27.5216 23.333 27.5831 23.1748 27.4864 23.0869C26.1383 21.877 24.5982 20.8998 22.9293 20.1953C22.9117 20.1865 22.8941 20.1821 22.8766 20.1733C25.6056 18.1914 27.381 14.9702 27.381 11.3359C27.381 5.31543 22.5118 0.4375 16.5045 0.4375C10.4972 0.4375 5.63243 5.31543 5.63243 11.3359C5.63243 14.9702 7.40782 18.1914 10.1412 20.1733C10.1236 20.1821 10.1061 20.1865 10.0885 20.1953C8.12413 21.0259 6.36193 22.2168 4.84581 23.7373C3.33845 25.2419 2.1384 27.0256 1.31261 28.9888C0.500118 30.9112 0.0616252 32.9709 0.0206177 35.0576C0.0194448 35.1045 0.0276715 35.1512 0.0448132 35.1949C0.061955 35.2385 0.0876649 35.2783 0.120428 35.3119C0.153191 35.3455 0.192345 35.3722 0.235581 35.3904C0.278818 35.4086 0.325263 35.418 0.37218 35.418H3.0045C3.19347 35.418 3.35167 35.2642 3.35607 35.0752C3.44396 31.6826 4.80187 28.5054 7.20568 26.0972C9.68859 23.6055 12.9933 22.2344 16.5089 22.2344C19.0006 22.2344 21.3912 22.9243 23.4523 24.2163C23.5052 24.2496 23.566 24.2683 23.6285 24.2706C23.691 24.2729 23.753 24.2588 23.8082 24.2295ZM16.5089 18.8945C14.4962 18.8945 12.6022 18.1079 11.1739 16.6797C10.4712 15.9788 9.91415 15.1458 9.53478 14.2287C9.15541 13.3116 8.96125 12.3284 8.96349 11.3359C8.96349 9.31885 9.75011 7.42041 11.1739 5.99219C12.5978 4.56396 14.4918 3.77734 16.5089 3.77734C18.526 3.77734 20.4156 4.56396 21.8439 5.99219C22.5466 6.69307 23.1036 7.52607 23.483 8.4432C23.8624 9.36032 24.0565 10.3434 24.0543 11.3359C24.0543 13.353 23.2677 15.2515 21.8439 16.6797C20.4156 18.1079 18.5216 18.8945 16.5089 18.8945ZM32.672 29.3535H28.9806V25.6621C28.9806 25.4688 28.8224 25.3105 28.629 25.3105H26.1681C25.9747 25.3105 25.8165 25.4688 25.8165 25.6621V29.3535H22.1251C21.9317 29.3535 21.7735 29.5117 21.7735 29.7051V32.166C21.7735 32.3594 21.9317 32.5176 22.1251 32.5176H25.8165V36.209C25.8165 36.4023 25.9747 36.5605 26.1681 36.5605H28.629C28.8224 36.5605 28.9806 36.4023 28.9806 36.209V32.5176H32.672C32.8653 32.5176 33.0235 32.3594 33.0235 32.166V29.7051C33.0235 29.5117 32.8653 29.3535 32.672 29.3535Z" fill="black"/>
</svg>
