<svg width="20" height="20" viewBox="0 0 20 20" fill="none" xmlns="http://www.w3.org/2000/svg">
<path d="M17.3915 1.28715L10.0003 8.6784L2.60901 1.28715C2.43124 1.12448 2.19756 1.03666 1.95665 1.042C1.71574 1.04734 1.48618 1.14542 1.31579 1.31581C1.1454 1.4862 1.04732 1.71576 1.04198 1.95667C1.03665 2.19758 1.12446 2.43126 1.28714 2.60903L8.67464 10.0003L1.28526 17.3897C1.19499 17.4757 1.12282 17.5789 1.07301 17.6932C1.02319 17.8076 0.996733 17.9307 0.995189 18.0554C0.993645 18.1801 1.01704 18.3038 1.06401 18.4193C1.11098 18.5349 1.18057 18.6398 1.26869 18.7281C1.35681 18.8163 1.46168 18.8861 1.57713 18.9332C1.69259 18.9803 1.8163 19.0039 1.941 19.0025C2.0657 19.0012 2.18887 18.9749 2.30327 18.9252C2.41766 18.8756 2.52098 18.8036 2.60714 18.7134L10.0003 11.324L17.3915 18.7153C17.5693 18.878 17.803 18.9658 18.0439 18.9604C18.2848 18.9551 18.5143 18.857 18.6847 18.6866C18.8551 18.5162 18.9532 18.2867 18.9585 18.0458C18.9639 17.8049 18.8761 17.5712 18.7134 17.3934L11.3221 10.0022L18.7134 2.60903C18.8037 2.523 18.8758 2.41978 18.9256 2.30546C18.9755 2.19113 19.0019 2.068 19.0035 1.94331C19.005 1.81861 18.9816 1.69486 18.9346 1.57934C18.8877 1.46381 18.8181 1.35884 18.73 1.2706C18.6418 1.18236 18.537 1.11262 18.4215 1.06549C18.3061 1.01836 18.1823 0.994782 18.0576 0.99615C17.933 0.997518 17.8098 1.0238 17.6954 1.07345C17.581 1.12311 17.4777 1.19513 17.3915 1.28528V1.28715Z" fill="black"/>
</svg>
