<svg width="25" height="26" viewBox="0 0 25 26" fill="none" xmlns="http://www.w3.org/2000/svg">
<path d="M24.187 4.97516L20.349 0.949879C20.1787 0.770749 19.9763 0.628626 19.7535 0.531654C19.5307 0.434681 19.2919 0.384766 19.0507 0.384766C18.8094 0.384766 18.5706 0.434681 18.3478 0.531654C18.125 0.628626 17.9227 0.770749 17.7523 0.949879L2.13816 17.4213L0.87399 23.1665C0.820134 23.445 0.825795 23.7326 0.890569 24.0085C0.955342 24.2844 1.07762 24.5419 1.2486 24.7623C1.41958 24.9828 1.63502 25.1607 1.87942 25.2834C2.12382 25.4061 2.3911 25.4704 2.66205 25.4718C2.80209 25.488 2.94339 25.488 3.08343 25.4718L8.60705 24.1938L24.187 7.69849C24.3578 7.51985 24.4934 7.30762 24.5858 7.07396C24.6783 6.8403 24.7259 6.58981 24.7259 6.33682C24.7259 6.08384 24.6783 5.83334 24.5858 5.59968C24.4934 5.36603 24.3578 5.1538 24.187 4.97516ZM7.4226 21.984L3.25427 22.9515L4.22232 18.6157L15.9757 6.20543L19.1873 9.57377L7.4226 21.984ZM20.4743 8.22405L17.2626 4.85571L19.0279 2.96849L22.2623 6.36071L20.4743 8.22405Z" fill="white"/>
</svg>
