<svg width="60" height="61" viewBox="0 0 60 61" fill="none" xmlns="http://www.w3.org/2000/svg">
<g clip-path="url(#clip0_2419_3378)">
<path d="M19.0635 23.8906C18.9035 23.5767 18.5905 23.3707 18.2395 23.3477L9.8272 22.7867C9.39127 22.7437 8.98826 23.0137 8.82924 23.4196L2.76473 38.9185C2.60172 39.3345 2.73473 39.8075 3.09074 40.0784C3.26875 40.2143 3.48273 40.2824 3.69566 40.2824C3.90659 40.2824 4.11765 40.2164 4.29565 40.0825L9.32928 36.3078L12.2601 36.8937C12.7381 36.9888 13.216 36.7267 13.39 36.2698C14.9639 32.1471 16.8587 28.3135 19.0195 24.8767C19.2066 24.5785 19.2236 24.2035 19.0635 23.8906ZM11.828 34.7677L9.28228 34.2588C9.00432 34.2038 8.71428 34.2698 8.48635 34.4397L5.90755 36.3735L10.4241 24.8304L16.4617 25.2324C14.7218 28.1773 13.1679 31.375 11.828 34.7677Z" fill="#F9526C"/>
<path d="M37.713 50.674L37.152 42.2606C37.128 41.9086 36.922 41.5957 36.6081 41.4356C36.2951 41.2757 35.9201 41.2916 35.6222 41.4796C32.1844 43.6404 28.3517 45.5353 24.2291 47.1091C23.7731 47.2821 23.5091 47.7601 23.6052 48.239L24.1911 51.1698L20.4164 56.2024C20.1484 56.5604 20.1495 57.0524 20.4204 57.4084C20.6134 57.6623 20.9104 57.8033 21.2163 57.8033C21.3383 57.8033 21.4614 57.7803 21.5813 57.7363L37.0801 51.6717C37.486 51.513 37.742 51.1089 37.713 50.674ZM24.125 54.5907L26.0588 52.0119C26.2289 51.7849 26.2948 51.495 26.2388 51.216L25.7299 48.6712C29.1236 47.3313 32.3203 45.7774 35.2651 44.0375L35.6681 50.074L24.125 54.5907Z" fill="#F9526C"/>
<path d="M28.9978 30.501H22.2603C21.8974 30.501 21.5634 30.698 21.3863 31.015L12.9299 46.2098C12.71 46.6058 12.7839 47.1017 13.1099 47.4158C13.301 47.5998 13.5519 47.6957 13.8039 47.6957C13.9819 47.6957 14.1609 47.6487 14.3208 47.5508L29.5157 38.3555C29.8146 38.1746 29.9977 37.8506 29.9977 37.5006V31.5009C29.9978 30.949 29.5498 30.501 28.9978 30.501ZM27.998 36.9376L16.5099 43.89L22.8474 32.5018V32.5008H27.998V36.9376Z" fill="#F9526C"/>
<path d="M59.9493 1.46401C59.9083 0.977105 59.5224 0.591093 59.0354 0.550078C58.7034 0.524062 25.775 -1.77478 11.5221 35.5564C11.3811 35.9255 11.47 36.3414 11.7491 36.6204L16.5037 41.375C16.7267 41.598 17.0386 41.6999 17.3516 41.658C17.6626 41.613 17.9346 41.425 18.0866 41.15L22.8503 32.5007H27.9979V36.9493L19.2966 42.4429C19.0396 42.6059 18.8706 42.8759 18.8366 43.1779C18.8026 43.4799 18.9086 43.7808 19.1236 43.9959L23.8782 48.7505C24.0692 48.9415 24.3242 49.0434 24.5852 49.0434C24.7052 49.0434 24.8261 49.0225 24.9421 48.9775C62.2751 34.7235 59.9773 1.79507 59.9493 1.46401ZM54.7037 19.2047C51.1949 27.886 43.1656 39.6882 24.832 46.8767L21.4222 43.4669L29.5316 38.3472C29.8216 38.1633 29.9976 37.8443 29.9976 37.5013V31.5017C29.9976 30.9497 29.5496 30.5017 28.9976 30.5017H22.2581C21.8932 30.5017 21.5582 30.7007 21.3821 31.0197L16.9755 39.0211L13.6228 35.6673C26.1349 3.74786 52.8048 2.44193 57.9894 2.51494C58.0264 4.84683 57.8125 11.5123 54.7037 19.2047Z" fill="#F9526C"/>
<path d="M17.1287 44.6649C16.9116 44.377 16.5657 44.2369 16.2267 44.2729C16.2617 43.9329 16.1217 43.5879 15.8347 43.3709C14.3269 42.231 12.381 41.8521 10.4942 42.33C8.49133 42.8389 6.85342 44.2048 6.00147 46.0797L0.0900048 59.0857C-0.0829623 59.4656 -0.00198652 59.9127 0.292972 60.2066C0.483985 60.3986 0.73992 60.4996 0.999957 60.4996C1.13999 60.4996 1.28097 60.4696 1.41398 60.4096L14.42 54.4971C16.2938 53.6462 17.6598 52.0082 18.1687 50.0054C18.6476 48.1206 18.2687 46.1738 17.1287 44.6649ZM16.2308 49.5135C15.8728 50.9244 14.9109 52.0773 13.593 52.6773L3.0138 57.4859L7.82243 46.9057C8.42137 45.5878 9.5753 44.6259 10.9862 44.268C11.3572 44.174 11.7301 44.1279 12.0981 44.1279C12.7211 44.1279 13.33 44.2609 13.8849 44.5199L12.933 46.2048C12.712 46.5958 12.7791 47.0868 13.097 47.4038C13.4149 47.7227 13.9059 47.7887 14.2959 47.5677L15.9808 46.6148C16.3907 47.4967 16.4838 48.5155 16.2308 49.5135Z" fill="#F9526C"/>
<path d="M59.9493 1.46501C59.9083 0.978101 59.5222 0.59209 59.0353 0.551075C58.6453 0.52002 49.376 -0.181926 38.4749 4.83974C38.1779 4.97568 37.9669 5.24966 37.9088 5.57169C37.8508 5.89372 37.9549 6.2236 38.1859 6.45457L54.0447 22.3134C54.2337 22.5024 54.4887 22.6064 54.7517 22.6064C54.8106 22.6064 54.8697 22.6013 54.9287 22.5914C55.2507 22.5334 55.5236 22.3224 55.6606 22.0254C60.6832 11.1242 59.9813 1.85395 59.9493 1.46501ZM54.4277 19.8665L40.6327 6.07161C48.6131 2.70285 55.6015 2.47082 57.9904 2.5109C58.0303 4.90173 57.8053 11.8682 54.4277 19.8665Z" fill="#F9526C"/>
<path d="M44.1605 16.3385C40.7977 12.9757 35.3272 12.9757 31.9645 16.3385C28.6017 19.7013 28.6017 25.1718 31.9645 28.5345C33.6454 30.2164 35.8542 31.0564 38.062 31.0564C40.2709 31.0564 42.4787 30.2155 44.1605 28.5345C47.5233 25.1718 47.5233 19.7011 44.1605 16.3385ZM42.7467 27.1206C40.1639 29.7033 35.9612 29.7033 33.3784 27.1206C30.7957 24.5378 30.7957 20.3351 33.3784 17.7523C34.6694 16.4614 36.3662 15.8155 38.0621 15.8155C39.7581 15.8155 41.4549 16.4614 42.7468 17.7523C45.3295 20.3351 45.3295 24.5378 42.7467 27.1206Z" fill="#F9526C"/>
<path d="M40.05 24.4254C38.954 25.5233 37.1702 25.5222 36.0732 24.4254C34.9773 23.3285 34.9773 21.5456 36.0732 20.4486C37.1692 19.3527 38.953 19.3518 40.05 20.4486C40.44 20.8396 41.0739 20.8396 41.4638 20.4486C41.8547 20.0577 41.8547 19.4257 41.4638 19.0348C39.5889 17.159 36.5352 17.159 34.6594 19.0348C32.7835 20.9106 32.7835 23.9634 34.6594 25.8392C35.5973 26.7772 36.8303 27.2461 38.0621 27.2461C39.295 27.2461 40.5269 26.7772 41.4638 25.8392C41.8547 25.4483 41.8547 24.8163 41.4638 24.4254C41.0738 24.0344 40.44 24.0344 40.05 24.4254Z" fill="#F9526C"/>
</g>
<defs>
<clipPath id="clip0_2419_3378">
<rect width="60" height="60" fill="white" transform="translate(0 0.5)"/>
</clipPath>
</defs>
</svg>
