<svg width="60" height="61" viewBox="0 0 60 61" fill="none" xmlns="http://www.w3.org/2000/svg">
<g clip-path="url(#clip0_2419_3319)">
<path d="M47.2478 7.21074C42.2337 3.49684 36.2834 1.53453 30.0402 1.53453C24.3475 1.53453 18.6919 3.17316 14.4826 5.98484V1.53453C14.4826 0.963477 14.0192 0.5 13.4481 0.5C12.8771 0.5 12.4136 0.963477 12.4136 1.53453V8.04242C12.4136 8.44379 12.6453 8.80894 13.0084 8.97863C13.3715 9.14937 13.8008 9.09453 14.1092 8.83789C18.0546 5.56063 24.0102 3.60336 30.0402 3.60336C35.8364 3.60336 41.3605 5.42609 46.0167 8.8741C46.2019 9.01062 46.417 9.07684 46.6313 9.07684C46.9478 9.07684 47.2602 8.93199 47.463 8.65789C47.8034 8.19863 47.7072 7.55105 47.2478 7.21074Z" fill="#F8546C"/>
<path d="M58.9654 12.9141H52.4575C52.0562 12.9141 51.693 13.1468 51.5224 13.51C51.3516 13.873 51.4065 14.3024 51.6631 14.6107C54.9404 18.5552 56.8976 24.5107 56.8976 30.5418C56.8976 36.338 55.0749 41.8621 51.6269 46.5172C51.2866 46.9765 51.3828 47.6241 51.8421 47.9645C52.0272 48.101 52.2424 48.1672 52.4566 48.1672C52.7731 48.1672 53.0855 48.0224 53.2893 47.7483C57.0031 42.7342 58.9655 36.7838 58.9655 30.5407C58.9655 24.848 57.3269 19.1914 54.5152 14.9831H58.9655C59.5366 14.9831 60.0001 14.5196 60.0001 13.9486C59.9999 13.3775 59.5365 12.9141 58.9654 12.9141Z" fill="#F8546C"/>
<path d="M46.9924 52.0229C46.6294 51.8532 46.201 51.9059 45.8917 52.1636C41.9462 55.4409 35.9906 57.3981 29.9606 57.3981C24.1633 57.3981 18.6392 55.5754 13.9841 52.1274C13.5248 51.7871 12.8772 51.8833 12.5368 52.3425C12.1965 52.8018 12.2927 53.4494 12.752 53.7898C17.7661 57.5036 23.7165 59.466 29.9595 59.466C35.6523 59.466 41.3079 57.8274 45.5171 55.0157V59.466C45.5171 60.0371 45.9806 60.5005 46.5517 60.5005C47.1227 60.5005 47.5862 60.0371 47.5862 59.466V52.9581C47.5862 52.5566 47.3545 52.1915 46.9924 52.0229Z" fill="#F8546C"/>
<path d="M8.33789 46.3908C5.06063 42.4453 3.10336 36.4908 3.10336 30.4598C3.10336 24.6635 4.92609 19.1394 8.37305 14.4843C8.71336 14.025 8.61715 13.3775 8.15789 13.037C7.69863 12.6957 7.05105 12.7929 6.71063 13.2522C2.99684 18.2663 1.03453 24.2166 1.03453 30.4598C1.03453 36.1525 2.67316 41.8081 5.48484 46.0173H1.03453C0.463477 46.0173 0 46.4808 0 47.0519C0 47.6229 0.463477 48.0864 1.03453 48.0864H7.54242C7.94379 48.0864 8.30789 47.8547 8.47863 47.4916C8.64937 47.1284 8.59453 46.699 8.33789 46.3908Z" fill="#F8546C"/>
<path d="M31.0344 20.1535C31.0333 19.5825 30.5699 19.1211 29.9999 19.1211C29.9999 19.1211 29.9988 19.1211 29.9978 19.1211C29.4256 19.1221 28.9643 19.5866 28.9653 20.1576L28.9902 30.5025C28.9912 31.0735 29.4547 31.5349 30.0247 31.5349C30.0258 31.5349 30.0268 31.5349 30.0268 31.5349C30.5989 31.5338 31.0603 31.0694 31.0592 30.4984L31.0344 20.1535Z" fill="#F8546C"/>
<path d="M30.0248 29.4658H23.7931C23.222 29.4658 22.7585 29.9293 22.7585 30.5004C22.7585 31.0714 23.222 31.5349 23.7931 31.5349H30.0248C30.5958 31.5349 31.0593 31.0714 31.0593 30.5004C31.0593 29.9293 30.5958 29.4658 30.0248 29.4658Z" fill="#F8546C"/>
<path d="M30 8.77637C18.0217 8.77637 8.27588 18.5212 8.27588 30.5005C8.27588 42.4797 18.0217 52.2246 30 52.2246C41.9792 52.2246 51.7241 42.4797 51.7241 30.5005C51.7241 18.5212 41.9792 8.77637 30 8.77637ZM30 50.1556C19.1617 50.1556 10.3448 41.3388 10.3448 30.5005C10.3448 19.6621 19.1617 10.8453 30 10.8453C40.8383 10.8453 49.6551 19.6621 49.6551 30.5005C49.6551 41.3388 40.8383 50.1556 30 50.1556Z" fill="#F8546C"/>
<path d="M15.5173 29.4658H13.4484C12.8773 29.4658 12.4138 29.9293 12.4138 30.5004C12.4138 31.0714 12.8773 31.5349 13.4484 31.5349H15.5173C16.0884 31.5349 16.5518 31.0714 16.5518 30.5004C16.5518 29.9293 16.0884 29.4658 15.5173 29.4658Z" fill="#F8546C"/>
<path d="M46.5517 29.4658H44.4828C43.9117 29.4658 43.4482 29.9293 43.4482 30.5004C43.4482 31.0714 43.9117 31.5349 44.4828 31.5349H46.5517C47.1228 31.5349 47.5863 31.0714 47.5863 30.5004C47.5863 29.9293 47.1228 29.4658 46.5517 29.4658Z" fill="#F8546C"/>
<path d="M30.0001 43.9482C29.4291 43.9482 28.9656 44.4117 28.9656 44.9828V47.0517C28.9656 47.6228 29.4291 48.0863 30.0001 48.0863C30.5712 48.0863 31.0346 47.6228 31.0346 47.0517V44.9828C31.0346 44.4116 30.5712 43.9482 30.0001 43.9482Z" fill="#F8546C"/>
<path d="M30.0001 12.9141C29.4291 12.9141 28.9656 13.3775 28.9656 13.9486V16.0175C28.9656 16.5886 29.4291 17.0521 30.0001 17.0521C30.5712 17.0521 31.0346 16.5886 31.0346 16.0175V13.9486C31.0346 13.3775 30.5712 12.9141 30.0001 12.9141Z" fill="#F8546C"/>
<path d="M20.3866 40.113C19.9831 39.7084 19.3282 39.7084 18.9238 40.113L17.5646 41.4713C17.1611 41.8748 17.1611 42.5296 17.5646 42.934C17.7662 43.1357 18.0311 43.2371 18.2959 43.2371C18.5608 43.2371 18.8256 43.1368 19.0273 42.934L20.3866 41.5757C20.79 41.1722 20.79 40.5174 20.3866 40.113Z" fill="#F8546C"/>
<path d="M42.4345 18.0651C42.03 17.6606 41.3762 17.6606 40.9718 18.0651L39.6135 19.4234C39.2089 19.828 39.2089 20.4818 39.6135 20.8862C39.8151 21.0878 40.08 21.1892 40.3448 21.1892C40.6097 21.1892 40.8745 21.0878 41.0762 20.8862L42.4345 19.5278C42.8389 19.1234 42.8389 18.4696 42.4345 18.0651Z" fill="#F8546C"/>
<path d="M42.4345 41.4713L41.0762 40.113C40.6717 39.7084 40.0179 39.7084 39.6135 40.113C39.2089 40.5175 39.2089 41.1713 39.6135 41.5757L40.9718 42.934C41.1735 43.1357 41.4383 43.2371 41.7031 43.2371C41.968 43.2371 42.2328 43.1368 42.4345 42.934C42.8389 42.5296 42.8389 41.8758 42.4345 41.4713Z" fill="#F8546C"/>
<path d="M20.3864 19.4234L19.0271 18.0651C18.6236 17.6606 17.9688 17.6606 17.5644 18.0651C17.1599 18.4696 17.1599 19.1244 17.5644 19.5278L18.9236 20.8862C19.1253 21.0878 19.3902 21.1892 19.655 21.1892C19.9199 21.1892 20.1847 21.0878 20.3864 20.8862C20.7909 20.4818 20.7909 19.8269 20.3864 19.4234Z" fill="#F8546C"/>
</g>
<defs>
<clipPath id="clip0_2419_3319">
<rect width="60" height="60" fill="white" transform="translate(0 0.5)"/>
</clipPath>
</defs>
</svg>
