<svg width="20" height="25" viewBox="0 0 20 25" fill="none" xmlns="http://www.w3.org/2000/svg">
<path d="M0.95 5.75V5.8H1H2.2V20.75C2.2 21.7578 2.60036 22.7244 3.31299 23.437C4.02563 24.1496 4.99218 24.55 6 24.55H14.75C15.7578 24.55 16.7244 24.1496 17.437 23.437C18.1496 22.7244 18.55 21.7578 18.55 20.75V5.8H19.75H19.8V5.75V2V1.95H19.75H14.1457L12.9104 0.714645L12.8957 0.7H12.875H7.875H7.85429L7.83964 0.714645L6.60429 1.95H1H0.95V2V5.75ZM13.4646 3.28536L13.4793 3.3H13.5H18.45V4.45H2.3V3.3H7.25H7.27071L7.28536 3.28536L8.52071 2.05H12.2293L13.4646 3.28536ZM6 8.2H5.95V8.25V20.75V20.8H6H7.25H7.3V20.75V8.25V8.2H7.25H6ZM13.5 8.2H13.45V8.25V20.75V20.8H13.5H14.75H14.8V20.75V8.25V8.2H14.75H13.5ZM3.55 20.75V5.8H17.2V20.75C17.2 21.3998 16.9419 22.0229 16.4824 22.4824C16.0229 22.9419 15.3998 23.2 14.75 23.2H6C5.35022 23.2 4.72705 22.9419 4.26759 22.4824C3.80812 22.0229 3.55 21.3998 3.55 20.75Z" fill="black" stroke="black" stroke-width="0.1"/>
</svg>
