<svg width="18" height="12" viewBox="0 0 18 12" fill="none" xmlns="http://www.w3.org/2000/svg">
<path d="M14.536 5.824C14.0133 5.824 13.5387 5.71733 13.112 5.504C12.696 5.28 12.3653 4.976 12.12 4.592C11.8853 4.19733 11.768 3.75467 11.768 3.264C11.768 2.77333 11.8853 2.336 12.12 1.952C12.3653 1.568 12.696 1.26933 13.112 1.056C13.5387 0.831999 14.0133 0.719999 14.536 0.719999C15.0587 0.719999 15.528 0.831999 15.944 1.056C16.3707 1.26933 16.7013 1.568 16.936 1.952C17.1813 2.336 17.304 2.77333 17.304 3.264C17.304 3.75467 17.1813 4.19733 16.936 4.592C16.7013 4.976 16.3707 5.28 15.944 5.504C15.528 5.71733 15.0587 5.824 14.536 5.824ZM9.016 0.799999H10.184V12H9.208L2.008 2.912V12H0.824V0.799999H1.8L9.016 9.888V0.799999ZM14.536 1.424C13.9707 1.424 13.5067 1.59467 13.144 1.936C12.7813 2.27733 12.6 2.72 12.6 3.264C12.6 3.808 12.776 4.25067 13.128 4.592C13.4907 4.93333 13.96 5.104 14.536 5.104C15.112 5.104 15.576 4.93333 15.928 4.592C16.2907 4.25067 16.472 3.808 16.472 3.264C16.472 2.72 16.2907 2.27733 15.928 1.936C15.5653 1.59467 15.1013 1.424 14.536 1.424ZM12.088 7.2H16.984V8H12.088V7.2Z" fill="black" fill-opacity="0.5"/>
</svg>
