<svg width="39" height="39" viewBox="0 0 39 39" fill="none" xmlns="http://www.w3.org/2000/svg">
<path d="M19.5001 0.214844C30.1506 0.214844 38.7858 8.85002 38.7858 19.5006C38.7858 30.1511 30.1506 38.7863 19.5001 38.7863C8.84953 38.7863 0.214355 30.1511 0.214355 19.5006C0.214355 8.85002 8.84953 0.214844 19.5001 0.214844ZM19.5001 2.62556C10.1802 2.62556 2.62507 10.1807 2.62507 19.5006C2.62507 28.8204 10.1802 36.3756 19.5001 36.3756C28.8199 36.3756 36.3751 28.8204 36.3751 19.5006C36.3751 10.1807 28.8199 2.62556 19.5001 2.62556ZM19.5001 9.8577C19.8197 9.8577 20.1263 9.98469 20.3524 10.2107C20.5784 10.4368 20.7054 10.7434 20.7054 11.0631V18.2952H27.9376C28.2572 18.2952 28.5638 18.4222 28.7899 18.6482C29.0159 18.8743 29.1429 19.1809 29.1429 19.5006C29.1429 19.8202 29.0159 20.1268 28.7899 20.3529C28.5638 20.5789 28.2572 20.7059 27.9376 20.7059H20.7054V27.9381C20.7054 28.2577 20.5784 28.5643 20.3524 28.7904C20.1263 29.0164 19.8197 29.1434 19.5001 29.1434C19.1804 29.1434 18.8738 29.0164 18.6478 28.7904C18.4217 28.5643 18.2947 28.2577 18.2947 27.9381V20.7059H11.0626C10.7429 20.7059 10.4363 20.5789 10.2103 20.3529C9.98421 20.1268 9.85721 19.8202 9.85721 19.5006C9.85721 19.1809 9.98421 18.8743 10.2103 18.6482C10.4363 18.4222 10.7429 18.2952 11.0626 18.2952H18.2947V11.0631C18.2947 10.7434 18.4217 10.4368 18.6478 10.2107C18.8738 9.98469 19.1804 9.8577 19.5001 9.8577Z" fill="black"/>
</svg>
